<?xml version="1.0" encoding="utf-8"?>
<!-- Generator: Adobe Illustrator 22.0.1, SVG Export Plug-In . SVG Version: 6.00 Build 0)  -->
<svg version="1.1" id="Layer_1" xmlns="http://www.w3.org/2000/svg" xmlns:xlink="http://www.w3.org/1999/xlink" x="0px" y="0px"
	 viewBox="0 0 512 512" style="enable-background:new 0 0 512 512;" xml:space="preserve">
<style type="text/css">
	.st0{fill:#000003;}
</style>
<path class="st0" d="M501.3,490.7H480v-21.3h21.3c5.9,0,10.7-4.8,10.7-10.7c0-5.9-4.8-10.7-10.7-10.7H10.7C4.8,448,0,452.8,0,458.7
	c0,5.9,4.8,10.7,10.7,10.7H32v21.3H10.7c-5.9,0-10.7,4.8-10.7,10.7S4.8,512,10.7,512h490.7c5.9,0,10.7-4.8,10.7-10.7
	C512,495.4,507.2,490.7,501.3,490.7z M458.7,490.7h-32v-21.3h32V490.7z M160,469.3h32v21.3h-32L160,469.3L160,469.3z M138.7,490.7
	h-32v-21.3h32V490.7z M213.3,469.3h32v21.3h-32V469.3z M266.7,469.3h32v21.3h-32V469.3z M320,469.3h32v21.3h-32V469.3z M373.3,469.3
	h32v21.3h-32V469.3z M53.3,469.3h32v21.3h-32V469.3z"/>
</svg>
