<?xml version="1.0" encoding="utf-8"?>
<!-- Generator: Adobe Illustrator 22.0.1, SVG Export Plug-In . SVG Version: 6.00 Build 0)  -->
<svg version="1.1" id="Layer_1" xmlns="http://www.w3.org/2000/svg" xmlns:xlink="http://www.w3.org/1999/xlink" x="0px" y="0px"
	 viewBox="0 0 512 512" style="enable-background:new 0 0 512 512;" xml:space="preserve">
<style type="text/css">
	.st0{fill:#EDBC41;}
	.st1{fill:#CB2246;}
	.st2{fill:#A7D4E3;}
	.st3{fill:#F8E39E;}
	.st4{fill:#000003;}
</style>
<g>
	<circle class="st0" cx="256" cy="127.2" r="32"/>
	<g>
		<polygon class="st1" points="149.3,213.3 149.3,149.3 90.7,149.3 10.7,213.3 21.3,213.3 		"/>
		<polygon class="st1" points="362.7,149.3 362.7,213.3 490.7,213.3 501.3,213.3 421.3,149.3 		"/>
	</g>
	<g>
		<rect x="21.3" y="213.3" class="st2" width="128" height="128"/>
		<rect x="192" y="213.3" class="st2" width="128" height="160"/>
		<rect x="362.7" y="213.3" class="st2" width="128" height="128"/>
	</g>
	<path class="st3" d="M320,373.3H192v-96v-64h64l60.3,0l3.7,0V373.3L320,373.3z M490.7,341.3H423h-60.3v-128v-64V96L256,10.7
		L149.3,96v53.3v64v60.3v67.7H81.7H21.3V416h128h213.3h128L490.7,341.3L490.7,341.3z M256,159.2c-17.7,0-32-14.3-32-32
		s14.3-32,32-32c17.7,0,32,14.3,32,32S273.7,159.2,256,159.2z"/>
	<rect x="149.3" y="373.3" class="st0" width="213.3" height="42.7"/>
</g>
<path class="st4" d="M10.7,224v192c0,5.9,4.8,10.7,10.7,10.7h128h213.3h128c5.9,0,10.7-4.8,10.7-10.7V224c4.5,0,8.6-2.9,10.1-7.1
	c1.5-4.3,0.1-9-3.4-11.9l-80-64c-1.9-1.5-4.2-2.3-6.7-2.3h-48V96c0-3.2-1.5-6.3-4-8.3L262.7,2.3c-3.9-3.1-9.4-3.1-13.3,0L142.7,87.7
	c-2.5,2-4,5.1-4,8.3v42.7h-48c-2.4,0-4.8,0.8-6.7,2.3L4,205c-3.5,2.8-4.9,7.6-3.4,11.9C2.1,221.1,6.1,224,10.7,224z M138.7,330.7
	h-31.2l31.2-31.2V330.7z M138.7,269.3l-61.4,61.4H47.1l23.2-23.2c4.2-4.2,4.2-10.9,0-15.1c-4.2-4.2-10.9-4.2-15.1,0L32,315.6V224
	h106.7L138.7,269.3L138.7,269.3z M32,352h106.7v53.3H32V352z M160,384h32c0,0,0,0,0.1,0H320c0,0,0,0,0.1,0h32v21.3H160V384z
	 M267.4,262.2c2.1,2.1,4.8,3.1,7.5,3.1s5.5-1,7.5-3.1l26.8-26.8v127.2H202.7v-80.9l57.7-57.8h30.2l-23.2,23.2
	C263.3,251.3,263.3,258.1,267.4,262.2z M202.7,251.6V224h27.6L202.7,251.6z M480,330.7h-31.2l31.2-31.2V330.7z M480,269.3
	l-61.4,61.4h-30.2l23.2-23.2c4.2-4.2,4.2-10.9,0-15.1c-4.2-4.2-10.9-4.2-15.1,0l-23.2,23.2V224H480L480,269.3L480,269.3z
	 M373.3,405.3V352H480v53.3H373.3z M417.6,160l53.3,42.7h-97.6V160H417.6z M160,101.1l96-76.8l96,76.8v112.2v149.3h-21.3V213.3
	c0-5.9-4.8-10.7-10.7-10.7H192c-5.9,0-10.7,4.8-10.7,10.7v149.3H160V213.3V101.1z M94.4,160h44.3v42.7H41.1L94.4,160z"/>
<path class="st4" d="M256,169.9c23.5,0,42.7-19.1,42.7-42.7c0-23.5-19.1-42.7-42.7-42.7c-23.5,0-42.7,19.1-42.7,42.7
	C213.3,150.7,232.5,169.9,256,169.9z M256,105.9c11.8,0,21.3,9.6,21.3,21.3c0,11.8-9.6,21.3-21.3,21.3c-11.8,0-21.3-9.6-21.3-21.3
	C234.7,115.4,244.2,105.9,256,105.9z"/>
<path class="st4" d="M245.6,269l-0.6,0.6c-4.2,4.2-4.2,10.9,0,15.1c2.1,2.1,4.8,3.1,7.5,3.1c2.7,0,5.5-1,7.5-3.1l0.6-0.6
	c4.2-4.2,4.2-10.9,0-15.1C256.5,264.8,249.8,264.8,245.6,269z"/>
<path class="st4" d="M84.5,288.8c2.7,0,5.5-1,7.6-3.1l0.6-0.6c4.2-4.2,4.1-10.9,0-15.1c-4.2-4.2-10.9-4.1-15.1,0l-0.6,0.6
	c-4.2,4.2-4.1,10.9,0,15.1C79.1,287.8,81.8,288.8,84.5,288.8z"/>
<path class="st4" d="M425.9,288.8c2.7,0,5.5-1,7.5-3.1l0.6-0.6c4.2-4.2,4.2-10.9,0-15.1c-4.2-4.2-10.9-4.2-15.1,0l-0.6,0.6
	c-4.2,4.2-4.2,10.9,0,15.1C420.4,287.8,423.1,288.8,425.9,288.8z"/>
</svg>
