<?xml version="1.0" encoding="iso-8859-1"?>
<!-- Generator: Adobe Illustrator 19.0.0, SVG Export Plug-In . SVG Version: 6.00 Build 0)  -->
<svg version="1.1" id="Capa_1" xmlns="http://www.w3.org/2000/svg" xmlns:xlink="http://www.w3.org/1999/xlink" x="0px" y="0px"
	 viewBox="0 0 512.026 512.026" style="enable-background:new 0 0 512.026 512.026;" xml:space="preserve">
<g>
	<g>
		<rect x="0.02" y="359.767" transform="matrix(1 -0.0026 0.0026 1 -0.9559 0.2509)" width="192.001" height="16"/>
	</g>
</g>
<g>
	<g>
		<rect x="208.026" y="359.513" width="32" height="16"/>
	</g>
</g>
<g>
	<g>
		<rect x="256.026" y="359.513" width="208" height="16"/>
	</g>
</g>
<g>
	<g>
		<rect x="480.026" y="359.513" width="32" height="16"/>
	</g>
</g>
<g>
	<g>
		<rect x="32.106" y="336.009" width="448" height="16"/>
	</g>
</g>
<g>
	<g>
		<path d="M419.978,160.009H379.93h-20.672h-15.12v-24h-128v24h-32v-24h-128v24h-8c-13.232,0-24,10.768-24,24v8v72v24
			c0,22.056,17.944,40,40,40h384c22.056,0,40-17.944,40-40v-24v-16v-2.808L419.978,160.009z M412.29,176.009l57.6,72h-17.96
			l-29.456-36l-29.456-36H412.29z M344.138,176.009h28.208l29.456,36l29.456,36h-87.12V176.009z M232.138,152.009h96v8h-96V152.009z
			 M72.138,152.009h96v8h-96V152.009z M40.138,208.009h256v40h-256V208.009z M40.138,264.009h256v16h-256V264.009z M472.138,288.009
			c0,13.232-10.768,24-24,24h-384c-10.416,0-19.216-6.704-22.528-16h270.528v-32v-8v-64h-272v-8c0-4.416,3.584-8,8-8h8h128h32h112
			v88h116.208h20.672h7.12V288.009z"/>
	</g>
</g>
<g>
</g>
<g>
</g>
<g>
</g>
<g>
</g>
<g>
</g>
<g>
</g>
<g>
</g>
<g>
</g>
<g>
</g>
<g>
</g>
<g>
</g>
<g>
</g>
<g>
</g>
<g>
</g>
<g>
</g>
</svg>
